<svg width="123.575px" height="122px" xmlns="http://www.w3.org/2000/svg" viewBox="188.2125 14 123.575 122" style="background: none;" preserveAspectRatio="xMidYMid"><defs><filter id="editing-vintage" x="-100%" y="-100%" width="300%" height="300%"><feConvolveMatrix in="SourceGraphic" result="extrude" order="4,4" divisor="1" kernelMatrix="1,0,0,0,0,1,0,0,0,0,1,0,0,0,0,1"> </feConvolveMatrix><feFlood flood-color="#51a1ff" result="flood-extrude"></feFlood><feComposite operator="in" in="flood-extrude" in2="extrude" result="extrude-color"></feComposite><feOffset dx="2" dy="2" in="extrude-color" result="extrude-offset"></feOffset><feColorMatrix in="SourceGraphic" result="stroke" type="matrix" values="0 0 0 0 0 0 0 0 0 0 0 0 0 0 0 0 1 0 0 0 "></feColorMatrix><feColorMatrix in="SourceGraphic" result="fill" type="matrix" values="0 0 0 0 0 0 0 0 0 0 0 0 0 0 0 1 0 0 1 0 "></feColorMatrix><feConvolveMatrix in="stroke" result="inner-shadow" order="5,5" divisor="1" kernelMatrix="1 0 0 0 0 0 1 0 0 0 0 0 1 0 0 0 0 0 1 0 0 0 0 0 1 "></feConvolveMatrix><feOffset dx="1" dy="1" in="inner-shadow" result="offset"></feOffset><feComposite operator="in" in="offset" in2="SourceAlpha" result="comp"></feComposite><feFlood flood-color="#000" result="flood3"></feFlood><feComposite operator="in" in="flood3" in2="comp" result="comp2"></feComposite><feColorMatrix in="comp2" result="comp3" type="matrix" values="1 0 0 0 0 0 1 0 0 0 0 0 1 0 0 0 0 0 0.5 0 "></feColorMatrix><feFlood flood-color="#ffffff" result="flood1"></feFlood><feComposite operator="in" in="flood1" in2="fill" result="fill2"></feComposite><feFlood flood-color="#fff" result="flood2"></feFlood><feComposite operator="in" in="flood2" in2="stroke" result="stroke2"></feComposite><feMerge result="obj"><feMergeNode in="extrude-offset"></feMergeNode><feMergeNode in="fill2"></feMergeNode><feMergeNode in="comp3"></feMergeNode></feMerge><feConvolveMatrix in="SourceAlpha" result="shadow" order="4,4" divisor="1" kernelMatrix="1,0,0,0,0,1,0,0,0,0,1,0,0,0,0,1"></feConvolveMatrix><feOffset dx="6" dy="6" in="shadow" result="shadow-offset"></feOffset><feFlood flood-color="#444444" result="flood-shadow"></feFlood><feComposite operator="in" in="flood-shadow" in2="shadow-offset" result="shadow-color"></feComposite><feMerge><feMergeNode in="shadow-color"></feMergeNode><feMergeNode in="obj"></feMergeNode></feMerge></filter></defs><g transform="translate(-4,-4)"><g filter="url(#editing-vintage)"><g transform="translate(212.14500331878662, 98.35999870300293)"><path d="M15.04 1.28L15.04 1.28L15.04 1.28Q0.96 1.28 0.96-11.97L0.96-11.97L0.96-11.97Q0.96-21.38 6.14-27.46L6.14-27.46L6.14-27.46Q11.65-33.92 21.18-33.92L21.18-33.92L21.18-33.92Q28.10-33.92 31.62-30.72L31.62-30.72L31.62-30.72Q35.14-27.52 35.14-20.80L35.14-20.80L35.14-20.80Q35.14-10.56 29.63-4.61L29.63-4.61L29.63-4.61Q24.26 1.28 15.04 1.28ZM16.70-26.56L16.70-26.56L16.70-26.56Q15.94-24.83 15.33-22.24L15.33-22.24L15.33-22.24Q14.72-19.65 13.95-15.55L13.95-15.55L13.95-15.55Q13.18-11.46 13.18-6.40L13.18-6.40L13.18-6.40Q13.18-4.74 13.73-3.65L13.73-3.65L13.73-3.65Q14.27-2.56 15.74-2.56L15.74-2.56L15.74-2.56Q17.22-2.56 18.14-3.26L18.14-3.26L18.14-3.26Q19.07-3.97 19.78-5.63L19.78-5.63L19.78-5.63Q21.06-8.58 22.08-14.05L22.08-14.05L22.08-14.05Q23.10-19.52 23.20-21.89L23.20-21.89L23.20-21.89Q23.30-24.26 23.30-26.02L23.30-26.02L23.30-26.02Q23.30-27.78 22.78-28.93L22.78-28.93L22.78-28.93Q22.27-30.08 20.83-30.08L20.83-30.08L20.83-30.08Q19.39-30.08 18.43-29.18L18.43-29.18L18.43-29.18Q17.47-28.29 16.70-26.56ZM43.46-26.75L43.46-26.75L43.46-26.75Q45.63-29.82 48.93-31.87L48.93-31.87L48.93-31.87Q52.22-33.92 56.26-33.92L56.26-33.92L56.26-33.92Q60.29-33.92 62.21-32.64L62.21-32.64L74.75-33.92L70.40-9.34L70.40-9.34Q68.16 3.20 63.42 8.13L63.42 8.13L63.42 8.13Q58.88 12.80 50.05 12.80L50.05 12.80L50.05 12.80Q43.33 12.80 39.49 10.69L39.49 10.69L39.49 10.69Q35.65 8.58 35.65 5.06L35.65 5.06L35.65 5.06Q35.65 2.43 37.63 0.93L37.63 0.93L37.63 0.93Q39.62-0.58 42.69-0.58L42.69-0.58L42.69-0.58Q45.38-0.58 47.42 0.64L47.42 0.64L47.42 0.64Q48.64 1.28 49.22 2.18L49.22 2.18L49.22 2.18Q47.74 3.46 47.74 5.57L47.74 5.57L47.74 5.57Q47.74 8.32 50.30 8.32L50.30 8.32L50.30 8.32Q54.59 8.32 57.02-1.79L57.02-1.79L57.02-1.79Q57.73-4.54 58.30-7.30L58.30-7.30L58.30-7.30Q55.42-3.78 48.90-3.78L48.90-3.78L48.90-3.78Q44.35-3.78 41.73-5.95L41.73-5.95L41.73-5.95Q39.10-8.13 39.10-13.25L39.10-13.25L39.10-13.25Q39.10-16.45 40.19-20.06L40.19-20.06L40.19-20.06Q41.28-23.68 43.46-26.75ZM51.78-13.06L51.78-13.06L51.78-13.06Q51.78-8.70 54.02-8.70L54.02-8.70L54.02-8.70Q55.55-8.70 57.02-10.37L57.02-10.37L57.02-10.37Q58.18-11.71 58.62-13.70L58.62-13.70L61.89-30.14L61.89-30.14Q61.57-30.21 61.25-30.34L61.25-30.34L61.25-30.34Q60.61-30.59 59.78-30.59L59.78-30.59L59.78-30.59Q55.87-30.59 53.57-24.19L53.57-24.19L53.57-24.19Q51.78-19.20 51.78-13.06Z" fill="#f00" stroke="#0f0" stroke-width="1.8"></path></g></g><g><g transform="translate(212.14499187469482, 98.36000633239746)"><path d="M15.04 1.28L15.04 1.28L15.04 1.28Q0.96 1.28 0.96-11.97L0.96-11.97L0.96-11.97Q0.96-21.38 6.14-27.46L6.14-27.46L6.14-27.46Q11.65-33.92 21.18-33.92L21.18-33.92L21.18-33.92Q28.10-33.92 31.62-30.72L31.62-30.72L31.62-30.72Q35.14-27.52 35.14-20.80L35.14-20.80L35.14-20.80Q35.14-10.56 29.63-4.61L29.63-4.61L29.63-4.61Q24.26 1.28 15.04 1.28ZM16.70-26.56L16.70-26.56L16.70-26.56Q15.94-24.83 15.33-22.24L15.33-22.24L15.33-22.24Q14.72-19.65 13.95-15.55L13.95-15.55L13.95-15.55Q13.18-11.46 13.18-6.40L13.18-6.40L13.18-6.40Q13.18-4.74 13.73-3.65L13.73-3.65L13.73-3.65Q14.27-2.56 15.74-2.56L15.74-2.56L15.74-2.56Q17.22-2.56 18.14-3.26L18.14-3.26L18.14-3.26Q19.07-3.97 19.78-5.63L19.78-5.63L19.78-5.63Q21.06-8.58 22.08-14.05L22.08-14.05L22.08-14.05Q23.10-19.52 23.20-21.89L23.20-21.89L23.20-21.89Q23.30-24.26 23.30-26.02L23.30-26.02L23.30-26.02Q23.30-27.78 22.78-28.93L22.78-28.93L22.78-28.93Q22.27-30.08 20.83-30.08L20.83-30.08L20.83-30.08Q19.39-30.08 18.43-29.18L18.43-29.18L18.43-29.18Q17.47-28.29 16.70-26.56ZM43.46-26.75L43.46-26.75L43.46-26.75Q45.63-29.82 48.93-31.87L48.93-31.87L48.93-31.87Q52.22-33.92 56.26-33.92L56.26-33.92L56.26-33.92Q60.29-33.92 62.21-32.64L62.21-32.64L74.75-33.92L70.40-9.34L70.40-9.34Q68.16 3.20 63.42 8.13L63.42 8.13L63.42 8.13Q58.88 12.80 50.05 12.80L50.05 12.80L50.05 12.80Q43.33 12.80 39.49 10.69L39.49 10.69L39.49 10.69Q35.65 8.58 35.65 5.06L35.65 5.06L35.65 5.06Q35.65 2.43 37.63 0.93L37.63 0.93L37.63 0.93Q39.62-0.58 42.69-0.58L42.69-0.58L42.69-0.58Q45.38-0.58 47.42 0.64L47.42 0.64L47.42 0.64Q48.64 1.28 49.22 2.18L49.22 2.18L49.22 2.18Q47.74 3.46 47.74 5.57L47.74 5.57L47.74 5.57Q47.74 8.32 50.30 8.32L50.30 8.32L50.30 8.32Q54.59 8.32 57.02-1.79L57.02-1.79L57.02-1.79Q57.73-4.54 58.30-7.30L58.30-7.30L58.30-7.30Q55.42-3.78 48.90-3.78L48.90-3.78L48.90-3.78Q44.35-3.78 41.73-5.95L41.73-5.95L41.73-5.95Q39.10-8.13 39.10-13.25L39.10-13.25L39.10-13.25Q39.10-16.45 40.19-20.06L40.19-20.06L40.19-20.06Q41.28-23.68 43.46-26.75ZM51.78-13.06L51.78-13.06L51.78-13.06Q51.78-8.70 54.02-8.70L54.02-8.70L54.02-8.70Q55.55-8.70 57.02-10.37L57.02-10.37L57.02-10.37Q58.18-11.71 58.62-13.70L58.62-13.70L61.89-30.14L61.89-30.14Q61.57-30.21 61.25-30.34L61.25-30.34L61.25-30.34Q60.61-30.59 59.78-30.59L59.78-30.59L59.78-30.59Q55.87-30.59 53.57-24.19L53.57-24.19L53.57-24.19Q51.78-19.20 51.78-13.06Z" fill="none" stroke="#000000" stroke-width="2.1"></path></g></g></g><style>text {
  font-size: 64px;
  font-family: Arial Black;
  dominant-baseline: central;
  text-anchor: middle;
}</style></svg>