<?xml version="1.0" encoding="utf-8"?>
<svg x="0px" y="0px" width="50" height="50" viewBox="0 0 50 50" style=" fill:#000000;" xmlns="http://www.w3.org/2000/svg">
  <path d="M 22.205 2 C 21.716 2 21.298 2.355 21.219 2.838 L 20.246 8.793 C 19.077 9.133 17.961 9.592 16.91 10.164 L 11.996 6.654 C 11.599 6.371 11.055 6.415 10.709 6.76 L 6.818 10.646 C 6.475 10.99 6.428 11.53 6.707 11.928 L 10.164 16.873 C 9.583 17.93 9.114 19.052 8.766 20.232 L 2.836 21.219 C 2.354 21.3 2.002 21.717 2.002 22.205 L 2.002 27.705 C 2.001 28.19 2.349 28.606 2.826 28.691 L 8.76 29.742 C 9.106 30.921 9.573 32.043 10.154 33.102 L 6.654 37.998 C 6.371 38.395 6.415 38.939 6.76 39.285 L 10.648 43.176 C 10.991 43.519 11.53 43.566 11.928 43.289 L 16.883 39.82 C 17.937 40.395 19.055 40.858 20.229 41.201 L 21.219 47.164 C 21.299 47.646 21.716 48 22.205 48 L 27.705 48 C 28.191 48.001 28.607 47.652 28.691 47.174 L 29.752 41.188 C 30.921 40.839 32.033 40.37 33.082 39.791 L 38.07 43.291 C 38.468 43.57 39.008 43.523 39.352 43.18 L 43.24 39.287 C 43.586 38.94 43.63 38.394 43.344 37.996 L 39.787 33.059 C 40.356 32.015 40.814 30.909 41.154 29.748 L 47.172 28.693 C 47.65 28.609 47.999 28.193 47.998 27.707 L 47.998 22.207 C 47.998 21.717 47.643 21.3 47.16 21.221 L 41.152 20.238 C 40.81 19.079 40.35 17.975 39.781 16.932 L 43.289 11.934 C 43.568 11.536 43.521 10.996 43.178 10.652 L 39.287 6.764 C 38.94 6.418 38.394 6.374 37.996 6.66 L 33.072 10.201 C 32.023 9.625 30.91 9.158 29.738 8.813 L 28.691 2.828 C 28.608 2.349 28.191 1.999 27.705 2 L 22.205 2 Z M 23.057 4 L 26.865 4 L 27.861 9.686 C 27.929 10.075 28.22 10.388 28.604 10.484 C 30.066 10.849 31.44 11.427 32.693 12.186 C 33.036 12.393 33.469 12.376 33.795 12.143 L 38.475 8.779 L 41.168 11.473 C 41.168 11.473 37.593 16.971 37.797 17.311 C 38.548 18.561 39.118 19.926 39.482 21.381 C 39.579 21.768 39.897 22.061 40.291 22.125 L 45.998 23.059 L 45.998 26.867 L 40.279 27.871 C 39.889 27.94 39.577 28.233 39.482 28.617 C 39.123 30.07 38.552 31.435 37.801 32.686 C 37.595 33.028 37.612 33.461 37.846 33.785 L 41.225 38.475 L 38.531 41.17 L 33.791 37.844 C 33.466 37.616 33.036 37.602 32.697 37.809 C 31.45 38.568 30.075 39.148 28.617 39.518 C 28.236 39.614 27.946 39.925 27.877 40.313 L 26.867 46 L 23.053 46 L 22.111 40.338 C 22.046 39.944 21.753 39.627 21.365 39.531 C 19.902 39.171 18.522 38.594 17.26 37.836 C 16.921 37.633 16.495 37.648 16.172 37.875 L 11.469 41.17 L 8.773 38.471 L 12.098 33.824 C 12.33 33.499 12.346 33.066 12.139 32.725 C 11.373 31.459 10.793 30.079 10.428 28.609 C 10.332 28.227 10.021 27.936 9.633 27.867 L 4.002 26.867 L 4.002 23.053 L 9.629 22.117 C 10.022 22.052 10.339 21.76 10.436 21.373 C 10.804 19.898 11.383 18.519 12.146 17.256 C 12.352 16.917 12.338 16.489 12.111 16.164 L 8.826 11.469 L 11.523 8.773 L 16.186 12.105 C 16.51 12.337 16.94 12.353 17.281 12.148 C 18.537 11.394 19.92 10.822 21.385 10.463 C 21.774 10.367 22.068 10.048 22.133 9.652 L 23.057 4 Z M 25 17 C 20.594 17 17 20.594 17 25 C 17 29.406 20.534 33 24.94 33 C 29.347 33 33 29.406 33 25 C 33 20.594 29.406 17 25 17 Z M 25 19 C 28.326 19 31 21.674 31 25 C 31 28.326 28.326 31 25 31 C 21.674 31 19 28.326 19 25 C 19 21.674 21.674 19 25 19 Z" style="stroke-width: 22px; fill: rgb(255, 255, 255);"/>
  <path style="stroke-width: 0px; stroke: rgb(186, 218, 85); paint-order: fill; fill: rgb(255, 255, 255);" d="M 22.036 4.97 C 22.136 4.67 22.232 4.141 22.515 3.952 C 22.782 3.774 23.258 3.78 23.593 3.713 C 24.699 3.491 26.307 2.954 27.186 3.832 C 27.938 4.585 27.457 6.14 28.204 6.886 C 28.412 7.095 28.231 7.872 28.443 8.084 C 28.709 8.349 28.842 9.082 29.162 9.401 C 29.514 9.754 30.218 10.039 30.599 10.419 C 30.845 10.666 31.33 10.455 31.617 10.599 C 31.98 10.78 32.62 10.636 32.934 10.479 C 33.739 10.077 34.955 9.618 35.868 9.162 C 36.224 8.984 37.153 9.014 37.425 8.743 C 37.492 8.676 37.979 8.743 38.084 8.743 C 38.696 8.743 39.758 8.677 40 9.162 C 40.351 9.863 40.75 10.602 41.198 11.497 C 41.272 11.646 41.448 12.194 41.317 12.455 C 41.138 12.813 40.956 13.535 40.659 13.832 C 40.401 14.09 39.818 14.495 39.641 14.85 C 39.057 16.019 39.078 18.636 39.641 19.76 C 39.698 19.874 39.915 19.988 40.06 20.06 C 40.57 20.315 40.781 21.034 41.437 21.198 C 42.252 21.401 43.353 21.587 44.132 21.976 C 44.569 22.195 45.443 21.964 45.689 22.455 C 45.772 22.621 46.131 22.681 46.228 22.874 C 46.457 23.334 47.096 23.982 46.826 24.79 C 46.696 25.181 46.507 25.649 46.228 25.928 C 45.804 26.351 46.974 27.457 46.527 27.904 C 46.341 28.09 45.006 27.916 44.79 28.024 C 43.194 28.822 41.158 28.482 40.12 29.521 C 39.54 30.101 39.242 31.553 38.323 31.737 C 38.053 31.791 37.732 32.13 37.425 31.976 C 36.091 31.309 35.139 29.517 33.713 29.042 C 33.4 28.938 32.198 28.469 32.036 28.144 C 31.916 27.903 32.214 27.668 32.275 27.485 C 32.42 27.052 32.845 25.81 32.575 25.269 C 32.128 24.376 31.906 23.218 31.317 22.335 C 31.063 21.954 31.19 21.13 30.838 20.778 C 30.352 20.292 29.853 19.793 29.341 19.281 C 28.96 18.9 28.185 18.853 27.725 18.623 C 25.55 17.535 21.625 18.016 20 19.641 C 19.605 20.036 19.521 20.549 19.521 21.138 C 19.521 21.264 19.608 21.949 19.521 22.036 C 19.108 22.449 18.737 22.7 18.383 23.054 C 18.212 23.225 17.787 22.838 17.725 22.754 C 17.211 22.07 16.728 21.235 15.928 20.778 C 14.443 19.93 12.655 19.362 11.497 18.204 C 10.645 17.351 11.158 16.288 10.599 15.449 C 9.897 14.397 9.081 13.412 8.683 12.216 C 8.414 11.408 8.797 10.392 9.461 10.06 C 9.984 9.798 10.014 9.111 10.659 8.982 C 11.067 8.9 11.505 8.585 11.976 8.743 C 12.613 8.955 13.806 9.195 14.192 9.581 C 14.57 9.959 14.994 10.401 15.509 10.659 C 17.295 11.552 19.833 10.274 20.479 8.982 C 20.79 8.36 20.585 7.452 20.958 6.707 C 21.103 6.416 21.508 5.593 21.677 5.509 C 21.758 5.468 21.68 5.027 21.737 4.97 C 21.817 4.89 22.395 4.324 22.395 4.311"/>
  <path style="stroke: rgb(0, 0, 0); paint-order: fill; fill: rgb(255, 255, 255); stroke-width: 0px;" d="M 32.036 27.425 C 32.972 27.425 33.488 28.054 34.311 28.383 C 35.649 28.918 37.483 29.758 38.323 30.599 C 38.54 30.815 38.402 31.314 38.503 31.617 C 38.676 32.136 38.888 32.95 39.102 33.593 C 39.169 33.794 38.957 34.466 39.102 34.611 C 39.701 35.21 40.084 35.887 40.778 36.407 C 41.521 36.964 41.679 38.797 41.257 39.641 C 41.115 39.925 40.951 40.721 40.599 40.838 C 40.246 40.956 39.725 41.489 39.341 41.617 C 37.047 42.381 34.786 40.117 33.234 39.341 C 32.976 39.212 32.473 39.395 32.275 39.461 C 31.353 39.769 30.09 40.254 29.281 40.659 C 29.193 40.703 29.075 41.219 29.042 41.317 C 28.834 41.94 28.425 42.711 28.144 43.413 C 28.042 43.667 28.157 43.985 28.024 44.251 C 27.799 44.702 27.626 45.787 27.305 46.108 C 26.791 46.622 26.074 46.724 25.389 47.066 C 25.02 47.251 23.978 47.618 23.593 47.425 C 23.242 47.25 23.226 46.999 22.994 46.766 C 22.151 45.924 21.667 45.289 21.317 43.892 C 21.199 43.419 21.436 42.723 21.257 42.275 C 20.929 41.453 20.661 40.361 19.82 39.94 C 18.999 39.529 17.693 39.581 16.647 39.581 C 16.486 39.581 15.729 39.481 15.629 39.581 C 15.371 39.839 14.939 39.791 14.671 40.06 C 14.337 40.393 14.167 40.701 13.772 40.898 C 13.049 41.26 11.364 42.202 10.599 41.437 C 10.235 41.073 9.701 40.718 9.521 40.359 C 9.41 40.138 9.428 39.787 9.281 39.641 C 8.554 38.914 8.132 37.916 8.862 37.186 C 9.671 36.377 10.452 34.899 10.778 33.593 C 10.859 33.269 11.198 32.216 10.898 31.916 C 10.716 31.733 10.662 31.324 10.539 31.078 C 10.106 30.211 9.529 29.409 8.922 28.802 C 8.531 28.412 7.114 28.549 6.587 28.443 C 5.525 28.231 3.543 27.995 3.174 26.886 C 2.985 26.321 3.054 25.489 3.054 24.79 C 3.054 24.161 3.049 23.663 3.293 23.174 C 3.701 22.359 5.379 22.239 6.168 21.976 C 6.674 21.807 7.258 22.083 7.665 21.677 C 7.862 21.479 8.424 21.536 8.563 21.257 C 8.983 20.418 9.739 19.243 10.479 18.503 C 10.682 18.3 10.75 17.753 10.898 17.605 C 11.106 17.397 11.621 17.244 11.856 17.126 C 12.1 17.004 12.721 17.126 12.994 17.126 C 14.646 17.126 15.989 18.084 16.946 19.042 C 17.696 19.792 18.092 21.576 17.844 22.814 C 17.689 23.593 17.392 24.657 17.605 25.509 C 17.815 26.351 17.863 28.043 18.443 28.623 C 18.873 29.053 19.227 29.527 19.701 30 C 20.02 30.319 20.549 30.43 20.898 30.778 C 21.192 31.072 21.999 31.041 22.275 31.317 C 22.406 31.447 22.732 31.273 22.814 31.437 C 22.954 31.717 23.368 31.474 23.653 31.617 C 24.578 32.08 27.339 33.081 27.844 32.575 C 28.199 32.221 28.264 31.885 28.682 31.676 C 28.79 31.622 29.298 30.086 29.341 30 C 29.481 29.72 30.069 29.683 30.24 29.341 C 30.386 29.048 30.586 29.091 30.838 28.922 C 31.513 28.472 32.404 27.605 33.353 27.605"/>
</svg>